<?xml version="1.0" standalone="no"?><!DOCTYPE svg PUBLIC "-//W3C//DTD SVG 1.1//EN" "http://www.w3.org/Graphics/SVG/1.1/DTD/svg11.dtd"><svg t="1514452459078" class="icon" style="" viewBox="0 0 1024 1024" version="1.1" xmlns="http://www.w3.org/2000/svg" p-id="1009" xmlns:xlink="http://www.w3.org/1999/xlink" width="200" height="200"><defs><style type="text/css"></style></defs><path d="M703.20744 571.277765 303.312387 571.277765c-31.548445 0-57.127571-25.579126-57.127571-57.127571L246.184816 57.127571C246.184816 25.579126 271.763942 0 303.312387 0l314.203182 0 0 114.255142 0 14.28215 0 14.28215 142.819441 0 0 371.330753C760.333982 545.698639 734.754857 571.277765 703.20744 571.277765zM517.541549 157.087195 346.158837 157.087195l0 28.578696 171.383741 0L517.542577 157.087195zM660.36099 271.356733 346.158837 271.356733l0 28.5643 314.202154 0L660.36099 271.356733zM660.36099 399.894024 346.158837 399.894024l0 28.5643 314.202154 0L660.36099 399.894024zM646.078841 1.01391l113.226835 113.241231-113.226835 0L646.078841 1.01391z" p-id="1010"></path><path d="M668.187432 986.011281l0 35.70486-21.13787 0 0-35.70486L531.366102 986.011281l0-18.281234 115.683459 0 0-19.994393-79.69273 0 0-86.833291 179.952619 0 0 86.833291-79.12202 0 0 19.994393 114.541011 0 0 18.281234L668.187432 986.011281zM727.029189 878.039092 587.637094 878.039092l0 18.281234 139.392095 0L727.029189 878.039092zM727.029189 930.596869l0-18.281234L587.637094 912.315635l0 18.281234L727.029189 930.596869zM535.365187 825.482344l68.268244 0-10.567906-26.564243-43.13129 0 0-17.995365 94.54559 0c-2.469992-7.427458-5.040759-13.796789-7.712299-19.137813l21.994449-3.427346c1.900311 4.569794 4.670568 12.096998 8.284038 22.565159l97.117385 0 0 17.995365-42.274711 0-10.283066 26.564243 67.411665 0 0 17.709496L535.365187 843.19184 535.365187 825.482344zM624.484403 825.482344l65.983347 0 9.997196-26.564243-86.54845 0L624.484403 825.482344zM502.231093 1006.862253l-11.139645 17.137757c-47.23012-17.709496-86.262581-39.788266-117.111777-66.26716-32.563384 29.90624-73.122879 51.900689-121.6826 65.982319l-10.853776-17.995365c48.173077-12.939181 87.591153-33.319189 118.254226-61.126655-32.948999-32.362864-55.885377-70.637462-68.838954-114.825852L246.869669 829.767298l0-20.566131 118.255254 0c-7.812045-15.424598-17.323881-29.706748-28.5643-42.846449l20.566131-7.42643c10.283066 12.953578 20.180516 29.706748 29.706748 50.272879l109.113609 0 0 20.566131-44.559608 0c-14.096026 45.330838-35.13415 83.120076-63.125683 113.397534C418.354183 968.686372 456.342913 989.925016 502.231093 1006.862253zM429.964793 829.767298 311.138828 829.767298c12.182348 38.475118 33.134094 71.980431 62.839814 100.543702C399.30172 902.704054 417.968568 869.185373 429.964793 829.767298z" p-id="1011"></path></svg>