<?xml version="1.0" standalone="no"?><!DOCTYPE svg PUBLIC "-//W3C//DTD SVG 1.1//EN" "http://www.w3.org/Graphics/SVG/1.1/DTD/svg11.dtd"><svg t="1514452511079" class="icon" style="" viewBox="0 0 1168 1024" version="1.1" xmlns="http://www.w3.org/2000/svg" p-id="2332" xmlns:xlink="http://www.w3.org/1999/xlink" width="228.125" height="200"><defs><style type="text/css"></style></defs><path d="M1041.066667 941.511111c0 40.228571-32.711111 72.736508-72.736508 72.736508H55.263492l128-602.819048c0-40.228571 32.711111-72.736508 72.736508-72.736508h839.51746c40.228571 0 72.736508 32.711111 72.736508 72.736508l-127.187301 530.08254M200.736508 284.24127h822.044444v-71.92381c0-40.228571-32.711111-72.736508-72.736508-72.736508H510.984127V72.736508C510.984127 32.507937 478.273016 0 438.247619 0H72.736508C32.711111 0 0 32.711111 0 72.736508V940.698413l128-584.533334c0-39.212698 32.507937-71.92381 72.736508-71.923809" p-id="2333"></path></svg>