<?xml version="1.0" standalone="no"?><!DOCTYPE svg PUBLIC "-//W3C//DTD SVG 1.1//EN" "http://www.w3.org/Graphics/SVG/1.1/DTD/svg11.dtd"><svg t="1514452492728" class="icon" style="" viewBox="0 0 1024 1024" version="1.1" xmlns="http://www.w3.org/2000/svg" p-id="1663" xmlns:xlink="http://www.w3.org/1999/xlink" width="200" height="200"><defs><style type="text/css"></style></defs><path d="M316.528562 316.465628c14.285355-14.275121 21.704324-31.978319 21.704324-51.963489 0-19.98517-7.41897-37.125549-21.704324-51.40067-14.275121-14.275121-31.405267-21.694091-51.390437-21.694091-19.98517 0-37.688367 7.41897-51.963489 21.694091-14.275121 14.275121-21.131273 31.4155-21.131273 51.40067 0 19.98517 6.856152 37.688367 21.131273 51.963489 14.275121 14.275121 31.978319 21.131273 51.963489 21.131273C285.123294 337.595878 302.25344 330.739726 316.528562 316.465628L316.528562 316.465628zM947.528839 593.422428c0 19.98517-6.844895 37.115316-21.120017 51.390437l-280.385898 280.948717c-14.85022 14.275121-31.978319 21.131273-51.964512 21.131273-19.984147 0-37.115316-6.856152-51.389414-21.131273l-408.300196-408.861992c-14.275121-14.275121-26.841322-33.124422-37.115316-57.673537-9.711176-24.559349-14.848173-46.826492-14.848173-66.811662l0-237.560534c0-19.98517 7.41897-37.115316 21.704324-51.390437 14.275121-14.275121 31.405267-21.694091 51.390437-21.694091l237.550301 0c19.98517 0 42.262546 5.136997 66.811662 15.410991 24.559349 9.711176 43.971467 22.277376 58.247612 36.552497l408.299173 407.715889C940.683944 556.296879 947.528839 573.427024 947.528839 593.422428z" p-id="1664"></path></svg>